<?xml version="1.0" encoding="utf-8"?>
<!-- Generator: Adobe Illustrator 18.1.0, SVG Export Plug-In . SVG Version: 6.00 Build 0)  -->
<!DOCTYPE svg PUBLIC "-//W3C//DTD SVG 1.1//EN" "http://www.w3.org/Graphics/SVG/1.1/DTD/svg11.dtd">
<svg version="1.1" id="Layer_1" xmlns="http://www.w3.org/2000/svg" xmlns:xlink="http://www.w3.org/1999/xlink" x="0px" y="0px"
	 viewBox="0 0 2000 2000" enable-background="new 0 0 2000 2000" xml:space="preserve">
<g id="surface96">
	<path fill="#BEBEBE" d="M1964.3,841.8h-0.6L1780,714c-0.6-0.6-0.6-1.2,0-1.8s1.2-0.6,1.8,0L1965.5,840c0.6,0.6,0.6,1.2,0,1.8
		C1965.5,841.8,1964.9,841.8,1964.3,841.8z"/>
	<path fill="#BEBEBE" d="M1735.6,697.8L1735.6,697.8l-6-0.6l-270.1-15.6c-0.6,0-1.2-0.6-1.2-1.2c0-0.6,0.6-1.2,1.2-1.2l41.4,2.4
		l234.7,13.2c0.6,0,1.2,0.6,1.2,1.2C1736.8,697.2,1736.2,697.8,1735.6,697.8z"/>
	<path fill="#BEBEBE" d="M107.7,669.6c0,0-0.6,0-0.6-0.6c-0.6-0.6-0.6-1.2,0-1.8l0,0l264.1-153.1c0.6-0.6,1.2,0,1.8,0.6
		s0,1.2-0.6,1.8l-1.2,0.6L108.3,669.6H107.7z"/>
	<path fill="#BEBEBE" d="M1434.3,637.8L1434.3,637.8c-1.2-0.6-1.2-1.2-1.2-1.8l9.6-19.2l129.1-252.1l0,0c0.6-0.6,1.2-0.6,1.8,0
		c0.6,0.6,0.6,1.2,0,1.2l-138.7,270.7C1435.5,637.8,1434.9,637.8,1434.3,637.8z"/>
	<path fill="#BEBEBE" d="M1610.1,1634.8l-15.6-1.2l-17.4-1.8l-18.6-2.4l-16.8-3l-13.8-3l-11.4-3.6l-9.6-4.8l-4.2-2.4l-9-6.6
		l-9.6-8.4l-10.2-11.4l-11.4-13.8l-11.4-14.4l-13.8-19.2c-0.6-0.6,0-1.2,0-1.8c0.6-0.6,1.2,0,1.8,0l13.8,19.2l11.4,14.4l11.4,13.8
		l10.2,11.4l9,8.4l9,6.6l4.2,2.4l9.6,4.8l10.8,3.6l13.2,3l16.2,3l18.6,2.4l33,3v1.2L1610.1,1634.8z"/>
	<path fill="#BEBEBE" d="M1609.5,1634.2l-9.6-12.6l-10.8-13.8l-12-14.4l-10.8-12.6l-9.6-10.2l-9-7.2l-9-6l-4.2-2.4l-10.2-4.2
		l-12-3.6l-15-3l-17.4-2.4l-18.6-1.8l-23.4-1.8c-0.6,0-1.2-0.6-1.2-1.2s0.6-1.2,1.2-1.2l9,0.6l15,1.2l18.6,1.8l17.4,2.4l15,3l12,3.6
		l10.2,4.2l4.2,2.4l9,6l9,7.8l9.6,10.2l10.8,12.6l12,14.4l19.8,26.4l-0.6,0.6L1609.5,1634.2z"/>
	<path fill="#BEBEBE" d="M1190.6,694.8c-0.6,0-0.6,0-1.2-0.6c0-0.6,0-1.2,0.6-1.8l1.2-0.6l7.2-4.2l13.8-7.2l16.2-7.8l15-6.6
		l12.6-4.8l10.8-3l10.2-1.2l0,0h10.2l11.4,1.2l13.2,3l15.6,4.8l16.8,6l22.2,8.4c0.6,0,0.6,0.6,0.6,1.2c0,0.6-0.6,0.6-1.2,0.6l-8.4-3
		l-13.8-4.8l-16.8-5.4l-15.6-4.8l-13.2-3l-11.4-1.2h-10.2l-10.2,1.2l-10.8,3l-12.6,4.8l-15,6.6l-16.2,7.8L1190.6,694.8
		C1191.2,694.8,1190.6,694.8,1190.6,694.8z"/>
	<path fill="#BEBEBE" d="M1271.6,718.2l-11.4-1.2l-13.2-3l-15.6-4.8l-16.8-5.4l-24-8.4c-0.6,0-0.6-0.6-0.6-1.2
		c0-0.6,0.6-0.6,1.2-0.6l9.6,3.6l14.4,4.8l16.8,5.4l15.6,4.8l13.2,3l10.8,1.2h10.2l10.2-1.2l10.8-3l12.6-4.8l15-6.6l15.6-7.8
		l21-11.4c0.6,0,1.2,0,1.8,0.6c0,0.6,0,1.2-0.6,1.8l-7.8,4.2l-13.2,7.2l-15.6,7.8l-15,6.6l-12.6,4.8l-10.8,3l-10.2,1.2
		c0,0,0,0-0.6,0L1271.6,718.2z"/>
	<path fill="#BEBEBE" d="M1388.7,1869.4L1388.7,1869.4c-0.6,0-1.2-0.6-1.2-1.2l18.6-313.9c0-0.6,0.6-1.2,1.2-1.2s1.2,0.6,1.2,1.2
		l-2.4,40.8l-16.2,273.1C1389.9,1868.8,1389.3,1869.4,1388.7,1869.4z"/>
	<path fill="#BEBEBE" d="M1080.1,1008.7C1079.5,1008.7,1079.5,1008.7,1080.1,1008.7l-147.1-72c-0.6,0-0.6-1.2-0.6-1.8
		s1.2-0.6,1.8-0.6l145.9,71.4c0.6,0,0.6,1.2,0.6,1.8C1080.7,1008.7,1080.1,1008.7,1080.1,1008.7z"/>
	<path fill="#BEBEBE" d="M1162.4,990.7h-0.6c-0.6-0.6-0.6-1.2,0-1.8L1383.9,714c0.6-0.6,1.2-0.6,1.8,0c0.6,0.6,0.6,1.2,0,1.8
		l-4.2,5.4l-217.9,269.5C1163,990.1,1162.4,990.7,1162.4,990.7z"/>
	<path fill="#BEBEBE" d="M1392.9,1493.1c-0.6,0-0.6,0-1.2-0.6l-3-5.4l-234.1-408.8c-0.6-0.6,0-1.2,0.6-1.8c0.6-0.6,1.2,0,1.8,0.6
		l18,31.8l219.1,382.4C1394.1,1491.9,1393.5,1492.5,1392.9,1493.1L1392.9,1493.1z"/>
	<path fill="#BEBEBE" d="M1130.6,978.7L1130.6,978.7c-0.6,0-1.2-0.6-1.2-1.2l9-229.3c0-0.6,0.6-1.2,1.2-1.2l0,0
		c0.6,0,1.2,0.6,1.2,1.2l-9,229.3C1131.8,978.1,1131.2,978.7,1130.6,978.7z"/>
	<path fill="#BEBEBE" d="M841.2,1416.3h-0.6c-0.6-0.6-0.6-1.2,0-1.8l255.1-340.9c0.6-0.6,1.2-0.6,1.8,0c0.6,0.6,0.6,1.2,0,1.8
		l-216.7,289.3l-38.4,51.6C841.8,1416.3,841.2,1416.3,841.2,1416.3z"/>
	<path fill="#BEBEBE" d="M1105.3,983.5c-0.6,0-0.6,0-1.2-0.6l-23.4-49.2L875.5,497.9c0-0.6,0-1.2,0.6-1.2s1.2,0,1.2,0.6l228.7,485
		l0,0C1106.5,982.9,1106.5,983.5,1105.3,983.5C1105.9,983.5,1105.3,983.5,1105.3,983.5z"/>
	<path fill="#BEBEBE" d="M236.2,1630h-0.6l-4.2-3.6L26.1,1457.7c-0.6-0.6-0.6-1.2,0-1.8c0.6-0.6,1.2-0.6,1.8,0l165.7,136.3l43.8,36
		c0.6,0.6,0.6,1.2,0,1.8C236.8,1630,236.8,1630,236.2,1630z"/>
	<path fill="#BEBEBE" d="M321.4,1861.6c-0.6,0-1.2,0-1.2-0.6l-7.2-21.6l-64.2-190.9c0-0.6,0-1.2,0.6-1.2s1.2,0,1.2,0.6l71.4,212.5
		C322.6,1861,322,1861.6,321.4,1861.6L321.4,1861.6z"/>
	<path fill="#BEBEBE" d="M1078.3,1007.5C1077.7,1007.5,1077.7,1007.5,1078.3,1007.5l-146.5-71.4v-1.2l0.6-1.2l146.5,71.4
		c0.6,0,0.6,1.2,0.6,1.8C1078.9,1007.5,1078.3,1007.5,1078.3,1007.5z"/>
	<path fill="#BEBEBE" d="M925.3,886.9c-0.6,0-0.6,0-0.6-0.6c-0.6-0.6-0.6-1.2,0-1.8l177.7-154.9c0.6-0.6,1.2-0.6,1.8,0
		c0.6,0.6,0.6,1.2,0,1.8l-6,5.4L926.5,886.3C925.9,886.3,925.3,886.9,925.3,886.9z"/>
	<path fill="#BEBEBE" d="M844.8,907.3C844.2,907.3,844.2,907.3,844.8,907.3l-289.3-57.6c-0.6,0-1.2-0.6-0.6-1.2s0.6-1.2,1.2-0.6
		l289.3,57.6c0.6,0,1.2,0.6,0.6,1.2C845.4,906.7,844.8,907.3,844.8,907.3z"/>
	<path fill="#BEBEBE" d="M516.5,814.8c-0.6,0-1.2-0.6-1.2-0.6l-14.4-42l-81-237.7c0-0.6,0-1.2,0.6-1.2s1.2,0,1.2,0.6l13.2,39
		l82.2,240.7v0.6C517.7,814.8,517.1,814.8,516.5,814.8z"/>
	<path fill="#BEBEBE" d="M425.9,461.3L425.9,461.3c-1.2-0.6-1.2-1.2-1.2-1.8v-0.6l125.5-238.3c0-0.6,1.2-0.6,1.8-0.6
		s0.6,1.2,0.6,1.8L427.1,460.1C426.5,460.7,426.5,461.3,425.9,461.3z"/>
	<path fill="#BEBEBE" d="M444.5,479.9l-1.8-1.8l2.4-2.4l7.2-7.8l9.6-10.2l9-8.4l7.8-6l7.2-4.2l1.8-0.6l7.8-2.4l10.2-1.2l12.6-0.6
		h13.2h10.2c0.6,0,1.2,0.6,1.2,1.2s-0.6,1.2-1.2,1.2l0,0h-10.2h-13.2l-12.6,0.6l-9.6,1.2l-7.8,2.4l-1.8,0.6l-7.2,3.6l-7.2,5.4
		l-9,8.4l-9.6,9.6L444.5,479.9z"/>
	<path fill="#BEBEBE" d="M446.9,480.5h-3.6c-0.6,0-1.2-0.6-1.2-1.2s0.6-1.2,1.2-1.2h3.6h10.8l13.8-0.6l12-0.6l9-1.8l7.2-2.4l1.8-0.6
		l7.2-4.2l7.8-6l9-9l9-9.6l6.6-7.8c0.6-0.6,1.2-0.6,1.8,0s0.6,1.2,0,1.8l-6.6,7.8l-9,9.6l-9,9l-7.8,6.6l-7.2,4.2l-1.8,0.6l-7.8,2.4
		l-9.6,1.8l-12,0.6l-13.8,0.6L446.9,480.5L446.9,480.5z"/>
	<path fill="#BEBEBE" d="M373.6,476.3C373.6,476.3,373,476.3,373.6,476.3l-1.2-0.6L139,340c-0.6-0.6-0.6-1.2-0.6-1.8
		c0.6-0.6,1.2-0.6,1.8-0.6l234.1,136.3c0.6,0.6,0.6,1.2,0.6,1.8C374.2,476.3,374.2,476.3,373.6,476.3z"/>
	<path fill="#BEBEBE" d="M820.8,422.9L590.3,215.2c-0.6-0.6-0.6-1.2,0-1.8s1.2-0.6,1.8,0l15.6,14.4l214.9,193.3L820.8,422.9z"/>
	<path fill="#BEBEBE" d="M448.7,491.9c-0.6,0-1.2-0.6-1.2-1.2s0.6-1.2,1.2-1.2l360.7-33.6c0.6,0,1.2,0.6,1.2,1.2s-0.6,1.2-1.2,1.2
		L448.7,491.9L448.7,491.9z"/>
	<path fill="#BEBEBE" d="M857.4,407.9C856.8,407.9,856.8,407.9,857.4,407.9c-0.6,0-1.2-0.6-1.2-1.2l7.8-353c0-0.6,0.6-1.2,1.2-1.2
		s1.2,0.6,1.2,1.2l-7.8,352.9C858,407.3,858,407.9,857.4,407.9z"/>
	<path fill="#BEBEBE" d="M810,449.3l-196.9-22.2c-0.6,0-1.2-0.6-1.2-1.2s0.6-1.2,1.2-1.2L810,446.9c0.6,0,1.2,0.6,1.2,1.2
		S810.6,449.3,810,449.3z"/>
	<path fill="#BEBEBE" d="M1102.3,664.8h-0.6l-6-4.8L890.5,484.7c-0.6-0.6-0.6-1.2,0-1.8c0.6-0.6,1.2-0.6,1.8,0l211.3,180.7
		c0.6,0.6,0.6,1.2,0,1.8C1103.5,664.8,1102.9,664.8,1102.3,664.8z"/>
	<path fill="#BEBEBE" d="M884.5,417.5h-0.6c-0.6-0.6-0.6-1.2,0-1.8l3-3.6l197.5-254.5c0.6-0.6,1.2-0.6,1.8,0c0.6,0.6,0.6,1.2,0,1.8
		l-4.2,6L886.3,417.5C885.1,417.5,885.1,417.5,884.5,417.5z"/>
	<path fill="#BEBEBE" d="M1439.7,1123.9L1439.7,1123.9l-4.8-1.2l-253.3-74.4c-0.6,0-1.2-0.6-0.6-1.2s0.6-1.2,1.2-0.6l7.2,2.4
		l250.3,73.2c0.6,0,1.2,0.6,0.6,1.2C1440.9,1123.3,1440.3,1123.9,1439.7,1123.9z"/>
	<path fill="#BEBEBE" d="M338.8,1868.8c-0.6,0-0.6,0-1.2-0.6c0-0.6,0-1.2,0.6-1.8l36.6-19.2l171.1-89.4c0.6,0,1.2,0,1.8,0.6
		c0,0.6,0,1.2-0.6,1.8L338.8,1868.8L338.8,1868.8z"/>
	<path fill="#BEBEBE" d="M674.4,1970.9c-0.6,0-1.2-0.6-1.2-1.2l-0.6-8.4l-0.6-15l-1.2-19.2l-1.8-19.8l-2.4-17.4l-3-14.4l-3.6-12
		l-4.8-11.4l-6-9.6l-7.2-9.6l-9.6-10.8l-12.6-12l-15-13.2l-15-12.6l-20.4-16.2c0,0-0.6-0.6-0.6-1.2s1.2-1.2,1.8-0.6l20.4,16.2
		l15,12.6l15,13.2l12.6,12l9.6,10.8l7.8,10.2l6.6,11.4l4.8,10.8l3.6,12l3,14.4l2.4,17.4l1.8,19.8l1.2,19.2l1.2,23.4
		C675.6,1970.3,675,1970.9,674.4,1970.9L674.4,1970.9z"/>
	<path fill="#BEBEBE" d="M544.7,1745.2L544.7,1745.2L259,1642.6c-0.6,0-0.6-0.6-0.6-1.2s0.6-0.6,1.2-0.6l285.1,102.6
		c0.6,0,0.6,0.6,0.6,1.2C545.9,1744.6,545.3,1745.2,544.7,1745.2z"/>
	<path fill="#BEBEBE" d="M574.1,1737.4h-0.6c-0.6-0.6-0.6-1.2,0-1.8l228.1-271.9c0.6-0.6,1.2-0.6,1.8,0s0.6,1.2,0,1.8l-228.1,271.9
		C574.7,1736.8,574.7,1737.4,574.1,1737.4z"/>
	<path fill="#BEBEBE" d="M674.4,1970.9h-0.6l-6.6-5.4l-11.4-9l-15-12.6l-15-13.2l-12.6-12l-10.2-10.8l-7.8-10.2l-6.6-11.4l-4.8-10.8
		l-3.6-12l-3-14.4l-2.4-17.4l-1.8-19.8l-1.2-19.8l-1.2-25.8c0-0.6,0.6-1.2,1.2-1.2c0.6,0,1.2,0.6,1.2,1.2l1.2,25.8l1.2,19.8
		l1.8,19.8l2.4,16.8l3,14.4l3.6,12l4.8,11.4l6,10.2l7.8,9.6l10.2,10.8l12.6,12l15,13.2l15,12.6l18,14.4c0.6,0.6,0.6,1.2,0,1.8
		C675,1970.9,674.4,1970.9,674.4,1970.9z"/>
	<path fill="#BEBEBE" d="M1134.8,1356.8c-0.6,0-1.2-0.6-1.2-1.2v-4.8l-4.8-263.5c0-0.6,0.6-1.2,1.2-1.2l0,0c0.6,0,1.2,0.6,1.2,1.2
		l5.4,268.3C1136,1356.2,1135.4,1356.8,1134.8,1356.8z"/>
	<g>
		<path fill="#BEBEBE" d="M1942.7,834l7.2,1.2l14.4,6l0.6-0.6l-10.8-11.4l-3.6-6L1942.7,834z"/>
		<path fill="#BEBEBE" d="M1964.3,843h-0.6l-14.4-6l-6.6-0.6c-0.6,0-1.2-0.6-1.8-1.2c-0.6-0.6,0-1.8,0-2.4l7.8-11.4
			c0.6-0.6,1.2-1.2,1.8-1.2c0.6,0,1.2,0.6,1.8,1.2l3,6l10.2,11.4c0.6,0.6,0.6,1.8,0,3l-0.6,0.6C1965.5,843,1964.9,843,1964.3,843z
			 M1946.9,832.2l3.6,0.6h0.6l6.6,3l-4.8-5.4c0,0,0-0.6-0.6-0.6l-1.8-3L1946.9,832.2z"/>
	</g>
	<g>
		<path fill="#BEBEBE" d="M1714,702l6.6-3l15.6-2.4V696l-15-4.2l-6-3.6L1714,702z"/>
		<path fill="#BEBEBE" d="M1714,704.4c-0.6,0-0.6,0-1.2-0.6s-1.2-1.2-1.2-1.8l0.6-13.8c0-0.6,0.6-1.2,1.2-1.8s1.8-0.6,2.4,0l6,3.6
			l15,4.2c1.2,0,1.8,1.2,1.8,2.4v0.6c0,1.2-0.6,1.8-1.8,1.8l-15,2.4l-6,3C1714.6,704.4,1714,704.4,1714,704.4z M1716.4,692.4
			l-0.6,6.6l3-1.2h0.6l7.2-1.2l-6.6-1.8h-0.6L1716.4,692.4z"/>
	</g>
	<g>
		<path fill="#BEBEBE" d="M122.7,651.6l-3.6,6l-11.4,10.2l0.6,0.6l15-4.8l7.2-0.6L122.7,651.6z"/>
		<path fill="#BEBEBE" d="M107.7,671.4c-0.6,0-1.8-0.6-1.8-1.2l-0.6-0.6c-0.6-1.2-0.6-1.8,0.6-3l11.4-10.2l3.6-6
			c0.6-0.6,1.2-1.2,1.8-1.2c0.6,0,1.2,0.6,1.8,1.2l7.2,12c0.6,0.6,0.6,1.8,0,2.4c-0.6,0.6-1.2,1.2-1.8,1.2l-6.6,0.6l-14.4,4.8
			C108.3,671.4,108.3,671.4,107.7,671.4z M122.7,656.4l-1.8,3c0,0,0,0.6-0.6,0.6l-5.4,4.8l6.6-2.4h0.6h3.6L122.7,656.4z"/>
	</g>
	<g>
		<path fill="#BEBEBE" d="M1569.3,388.1v-7.2l4.2-15l-0.6-0.6l-9.6,12l-6,4.2L1569.3,388.1z"/>
		<path fill="#BEBEBE" d="M1569.3,390.5c-0.6,0-0.6,0-1.2,0l-12.6-6c-0.6-0.6-1.2-1.2-1.2-1.8c0-0.6,0-1.8,1.2-1.8l5.4-4.2l9.6-12
			c0.6-0.6,1.8-1.2,3-0.6l0.6,0.6c1.2,0.6,1.2,1.8,1.2,2.4l-4.2,15v6.6c0,0.6-0.6,1.8-1.2,1.8
			C1570.5,390.5,1569.9,390.5,1569.3,390.5z M1561.5,381.5l6,3v-3.6v-0.6l1.8-6.6l-4.2,5.4c0,0,0,0-0.6,0.6L1561.5,381.5z"/>
	</g>
	<g>
		<path fill="#BEBEBE" d="M1587.9,1638.4l6.6-2.4l15.6-1.8v-0.6l-15-4.8l-6-3.6L1587.9,1638.4z"/>
		<path fill="#BEBEBE" d="M1587.9,1640.8c-0.6,0-1.2,0-1.2-0.6c-0.6-0.6-1.2-1.2-0.6-1.8l1.2-13.8c0-0.6,0.6-1.2,1.2-1.8
			c0.6-0.6,1.8,0,2.4,0l6,3.6l14.4,4.8c1.2,0.6,1.8,1.2,1.8,2.4v0.6c0,1.2-1.2,1.8-1.8,1.8l-15,1.8l-6.6,2.4
			C1588.5,1640.8,1588.5,1640.8,1587.9,1640.8z M1591.5,1628.2l-0.6,6.6l3-1.2h0.6l7.2-0.6l-6.6-2.4h-0.6L1591.5,1628.2z"/>
	</g>
	<g>
		<path fill="#BEBEBE" d="M1591.5,1620.9l6.6,3l12,10.2l0.6-0.6l-6.6-13.8l-1.2-7.2L1591.5,1620.9z"/>
		<path fill="#BEBEBE" d="M1610.1,1636c-0.6,0-1.2,0-1.2-0.6l-11.4-10.2l-6-3c-0.6-0.6-1.2-1.2-1.2-1.8c0-0.6,0-1.8,0.6-1.8
			l10.8-8.4c0.6-0.6,1.2-0.6,2.4-0.6c0.6,0,1.2,1.2,1.2,1.8l1.2,6.6l6.6,13.8c0.6,1.2,0,2.4-0.6,3l-0.6,0.6
			C1610.7,1636,1610.1,1636,1610.1,1636z M1595.7,1620.3l3,1.2c0,0,0.6,0,0.6,0.6l5.4,4.8l-3-6.6v-0.6l-0.6-3.6L1595.7,1620.3z"/>
	</g>
	<g>
		<path fill="#BEBEBE" d="M1206.8,678l-4.2,6l-12,9.6l0.6,0.6l15-4.2h7.2L1206.8,678z"/>
		<path fill="#BEBEBE" d="M1190.6,696.6c-0.6,0-1.8-0.6-1.8-1.2l-0.6-0.6c-0.6-1.2,0-2.4,0.6-3l12-9.6l4.2-5.4
			c0.6-0.6,1.2-1.2,1.8-1.2c0.6,0,1.2,0.6,1.8,1.2l6.6,12c0.6,0.6,0.6,1.8,0,2.4c-0.6,0.6-1.2,1.2-1.8,1.2h-6.6L1190.6,696.6
			C1191.2,696.6,1191.2,696.6,1190.6,696.6z M1206.2,682.2l-1.8,3c0,0,0,0.6-0.6,0.6l-5.4,4.2l6.6-1.8h0.6h3.6L1206.2,682.2z"/>
	</g>
	<g>
		<path fill="#BEBEBE" d="M1213.4,694.2l-7.2,1.2l-15.6-1.8v0.6l13.2,7.8l4.8,5.4L1213.4,694.2z"/>
		<path fill="#BEBEBE" d="M1208.6,709.8c-0.6,0-1.2,0-1.8-0.6l-4.8-4.8l-13.2-7.8c-1.2-0.6-1.2-1.8-1.2-2.4v-0.6
			c0.6-1.2,1.2-1.8,2.4-1.8l15,1.8l6.6-1.2c0.6,0,1.8,0,1.8,0.6c0.6,0.6,0.6,1.2,0.6,2.4l-4.8,13.2
			C1210.4,709.2,1209.8,709.2,1208.6,709.8C1209.2,709.8,1209.2,709.8,1208.6,709.8z M1199,696.6l6,3.6c0,0,0.6,0,0.6,0.6l2.4,2.4
			l2.4-6l-3.6,0.6h-0.6L1199,696.6z"/>
	</g>
	<g>
		<path fill="#BEBEBE" d="M1383.3,1846.6l3,6.6l2.4,15.6h0.6l4.2-15l3.6-6L1383.3,1846.6z"/>
		<path fill="#BEBEBE" d="M1389.3,1870.6L1389.3,1870.6h-1.2c-1.2,0-1.8-0.6-2.4-1.8l-2.4-15l-3-6c-0.6-0.6,0-1.8,0-2.4
			c0.6-0.6,1.2-1.2,1.8-1.2l13.8,0.6c0.6,0,1.2,0.6,1.8,1.2c0.6,0.6,0.6,1.8,0,2.4l-3.6,6l-4.2,15
			C1391.1,1870,1389.9,1870.6,1389.3,1870.6z M1386.9,1849l1.2,3v0.6l1.2,7.2l1.8-6.6v-0.6l1.8-3L1386.9,1849z"/>
	</g>
	<g>
		<path fill="#BEBEBE" d="M1057.3,1004.5h7.2l15,3.6l0.6-0.6l-12.6-9.6l-4.2-5.4L1057.3,1004.5z"/>
		<path fill="#BEBEBE" d="M1079.5,1010.5L1079.5,1010.5l-15.6-3.6h-6.6c-0.6,0-1.8-0.6-1.8-1.2s-0.6-1.2,0-2.4l6-12.6
			c0.6-0.6,1.2-1.2,1.8-1.2c0.6,0,1.8,0,1.8,0.6l4.2,5.4l12,9.6c0.6,0.6,1.2,1.8,0.6,3l-0.6,0.6
			C1081.3,1009.9,1080.7,1010.5,1079.5,1010.5z M1064.5,1002.1C1065.1,1002.1,1065.1,1002.1,1064.5,1002.1l7.2,1.8l-5.4-4.2
			c0,0,0,0-0.6-0.6l-1.8-3l-3,6H1064.5L1064.5,1002.1z"/>
	</g>
	<g>
		<path fill="#BEBEBE" d="M1170.2,968.5l-1.2,7.2l-7.2,13.8l0.6,0.6l12-9.6l6.6-3L1170.2,968.5z"/>
		<path fill="#BEBEBE" d="M1162.4,991.9c-0.6,0-1.2,0-1.2-0.6l-0.6-0.6c-0.6-0.6-1.2-1.8-0.6-3l7.2-13.8l1.2-6.6
			c0-0.6,0.6-1.2,1.2-1.8c0.6,0,1.8,0,2.4,0.6l10.8,8.4c0.6,0.6,1.2,1.2,0.6,1.8c0,0.6-0.6,1.2-1.2,1.8l-6,3l-12,9.6
			C1163.6,991.9,1163,991.9,1162.4,991.9z M1172,972.1l-0.6,3.6v0.6l-3,6l5.4-4.2c0,0,0.6,0,0.6-0.6l3-1.2L1172,972.1z"/>
	</g>
	<g>
		<path fill="#BEBEBE" d="M1172,1093.3l-6-3.6l-10.2-11.4l-0.6,0.6l4.8,15l0.6,7.2L1172,1093.3z"/>
		<path fill="#BEBEBE" d="M1160,1102.3c-0.6,0-0.6,0-1.2,0c-0.6-0.6-1.2-1.2-1.2-1.8l-0.6-6.6l-4.8-14.4c-0.6-1.2,0-2.4,1.2-2.4
			l0.6-0.6c1.2-0.6,1.8-0.6,3,0.6l10.2,11.4l6,3.6c0.6,0.6,1.2,1.2,1.2,1.8s-0.6,1.2-1.2,1.8l-12,6.6
			C1160.6,1102.3,1160.6,1102.3,1160,1102.3z M1159.4,1085.5l2.4,6.6v0.6v3.6l5.4-3l-3-1.8c0,0-0.6,0-0.6-0.6L1159.4,1085.5z"/>
	</g>
	<g>
		<path fill="#BEBEBE" d="M1124.5,955.9l3,6.6l2.4,15.6h0.6l3.6-15l3.6-6L1124.5,955.9z"/>
		<path fill="#BEBEBE" d="M1131.2,979.9L1131.2,979.9h-1.2c-1.2,0-1.8-0.6-1.8-1.8l-2.4-15l-3-6c-0.6-0.6,0-1.8,0-2.4
			s1.2-1.2,1.8-1.2l13.8,0.6c0.6,0,1.2,0.6,1.8,1.2c0.6,0.6,0.6,1.8,0,2.4l-3.6,6l-3.6,15C1133,979.3,1131.8,979.9,1131.2,979.9z
			 M1128.2,958.3l1.2,3v0.6l1.2,7.2l1.8-7.2v-0.6l1.8-3H1128.2z"/>
	</g>
	<g>
		<path fill="#BEBEBE" d="M1088.5,1095.7l1.2-7.2l6.6-14.4l-0.6-0.6l-12,10.2l-6.6,3L1088.5,1095.7z"/>
		<path fill="#BEBEBE" d="M1088.5,1098.1c-0.6,0-1.2,0-1.2-0.6l-10.8-8.4c-0.6-0.6-1.2-1.2-0.6-1.8c0-0.6,0.6-1.2,1.2-1.8l6-3
			l11.4-10.2c0.6-0.6,1.8-0.6,3,0l0.6,0.6c0.6,0.6,1.2,1.8,0.6,3l-6.6,13.8l-1.2,6.6c0,0.6-0.6,1.2-1.2,1.8
			C1089.1,1098.1,1089.1,1098.1,1088.5,1098.1z M1081.9,1087.9l5.4,3.6l0.6-3.6v-0.6l3-6.6l-5.4,4.8c0,0-0.6,0-0.6,0.6
			L1081.9,1087.9z"/>
	</g>
	<g>
		<path fill="#BEBEBE" d="M1089.7,966.1l5.4,4.2l9.6,12.6l0.6-0.6l-3.6-15v-7.2L1089.7,966.1z"/>
		<path fill="#BEBEBE" d="M1105.3,985.3c-0.6,0-1.2-0.6-1.8-0.6l-9-12l-5.4-4.2c-0.6-0.6-1.2-1.2-0.6-1.8c0-0.6,0.6-1.2,1.2-1.8
			l12.6-6c0.6-0.6,1.8,0,2.4,0c0.6,0.6,1.2,1.2,1.2,1.8v6.6l3.6,15c0,1.2,0,1.8-1.2,2.4l-0.6,0.6
			C1105.9,984.7,1105.3,985.3,1105.3,985.3z M1094.5,966.7l3,1.8c0,0,0,0,0.6,0.6l4.2,5.4l-1.8-6.6v-0.6v-3.6L1094.5,966.7z"/>
	</g>
	<g>
		<path fill="#BEBEBE" d="M215.2,1620.3l7.2,1.8l13.8,7.2l0.6-0.6l-9.6-12l-3-6.6L215.2,1620.3z"/>
		<path fill="#BEBEBE" d="M236.2,1631.2c-0.6,0-0.6,0-1.2,0l-13.8-7.2l-6.6-1.2c-0.6,0-1.2-0.6-1.8-1.2c0-0.6,0-1.8,0.6-2.4l9-10.8
			c0.6-0.6,1.2-1.2,1.8-0.6c0.6,0,1.2,0.6,1.8,1.2l3,6l9.6,12c0.6,0.6,0.6,1.8,0,3l-0.6,0.6C237.4,1631.2,236.8,1631.2,236.2,1631.2
			z M219.4,1619.1l3.6,0.6h0.6l6.6,3l-4.2-5.4c0,0,0-0.6-0.6-0.6l-1.2-3L219.4,1619.1z"/>
	</g>
	<g>
		<path fill="#BEBEBE" d="M263.2,1666.6l-4.8-4.8l-7.8-13.2H250l1.8,15.6l-1.2,7.2L263.2,1666.6z"/>
		<path fill="#BEBEBE" d="M250,1673.2c-0.6,0-1.2,0-1.2-0.6c-0.6-0.6-0.6-1.2-0.6-1.8l1.2-6.6l-1.8-15c0-1.2,0.6-1.8,1.8-2.4h0.6
			c1.2-0.6,2.4,0,2.4,1.2l7.8,13.2l4.8,4.8c0.6,0.6,0.6,1.2,0.6,2.4c0,0.6-0.6,1.2-1.2,1.8l-13.2,4.2
			C250.6,1673.2,250.6,1673.2,250,1673.2z M252.4,1657l0.6,7.2v0.6l-0.6,3.6l6-1.8l-2.4-2.4c0,0,0,0-0.6-0.6L252.4,1657z"/>
	</g>
	<g>
		<path fill="#BEBEBE" d="M954.1,938.5h-7.2l-15-3.6l-0.6,0.6l12,9.6l4.2,5.4L954.1,938.5z"/>
		<path fill="#BEBEBE" d="M948.1,952.9c-0.6,0-1.2-0.6-1.8-1.2l-4.2-5.4l-12-9.6c-0.6-0.6-1.2-1.8-0.6-3l0.6-0.6
			c0.6-1.2,1.8-1.2,2.4-1.2l15,3.6h6.6c0.6,0,1.8,0.6,1.8,1.2c0.6,0.6,0.6,1.2,0,2.4l-6,12.6C949.9,952.3,949.3,952.9,948.1,952.9
			L948.1,952.9z M939.7,939.1l5.4,4.2c0,0,0,0,0.6,0.6l1.8,3l3-6h-3.6h-0.6L939.7,939.1z"/>
	</g>
	<g>
		<path fill="#BEBEBE" d="M937.3,865.8l-2.4,6.6l-9.6,12.6l0.6,0.6l13.8-7.8l7.2-1.8L937.3,865.8z"/>
		<path fill="#BEBEBE" d="M925.3,888.1c-0.6,0-1.2,0-1.8-0.6l-0.6-0.6c-0.6-0.6-0.6-1.8,0-3l9-12l2.4-6.6c0-0.6,1.2-1.2,1.8-1.2
			s1.8,0,1.8,0.6l9,10.2c0.6,0.6,0.6,1.2,0.6,2.4s-0.6,1.2-1.8,1.8l-6.6,1.8l-13.2,7.2C926.5,888.1,925.9,888.1,925.3,888.1z
			 M937.9,870l-1.2,3v0.6l-4.2,5.4l6-3.6h0.6l3.6-0.6L937.9,870z"/>
	</g>
	<g>
		<path fill="#BEBEBE" d="M577.7,845.4l-6.6,1.8h-15.6v0.6l14.4,6l5.4,4.2L577.7,845.4z"/>
		<path fill="#BEBEBE" d="M575.3,861c-0.6,0-1.2,0-1.2-0.6l-5.4-4.2l-13.8-6c-1.2-0.6-1.8-1.2-1.2-2.4v-0.6c0-1.2,1.2-1.8,2.4-1.8
			h15.6l6.6-1.8c0.6,0,1.8,0,2.4,0.6c0.6,0.6,0.6,1.2,0.6,1.8l-2.4,13.8c0,0.6-0.6,1.2-1.2,1.8C575.3,861,575.3,861,575.3,861z
			 M563.9,849.6l6.6,3h0.6l2.4,2.4l1.2-6.6l-3,1.2h-0.6L563.9,849.6z"/>
	</g>
	<g>
		<path fill="#BEBEBE" d="M502.7,795.6l5.4,4.8l7.8,13.2h0.6l-1.8-15.6l1.2-7.2L502.7,795.6z"/>
		<path fill="#BEBEBE" d="M515.9,816.6c-0.6,0-1.8-0.6-1.8-1.2l-7.8-13.2l-4.8-4.8c-0.6-0.6-0.6-1.2-0.6-2.4c0-0.6,0.6-1.2,1.2-1.8
			l13.2-4.2c0.6,0,1.8,0,2.4,0.6c0.6,0.6,1.2,1.2,0.6,1.8l-1.2,6.6l1.8,15c0,1.2-0.6,1.8-1.8,2.4h-0.6
			C516.5,816.6,516.5,816.6,515.9,816.6z M506.9,796.8l2.4,2.4c0,0,0,0,0.6,0.6l3.6,6l-0.6-7.2V798l0.6-3.6L506.9,796.8z"/>
	</g>
	<g>
		<path fill="#BEBEBE" d="M430.1,437.9v7.2l-4.2,15l0.6,0.6l10.2-12l6-4.2L430.1,437.9z"/>
		<path fill="#BEBEBE" d="M426.5,462.5c-0.6,0-0.6,0-1.2,0l-0.6-0.6c-1.2-0.6-1.2-1.8-1.2-2.4l4.2-15v-6.6c0-0.6,0.6-1.8,1.2-1.8
			c0.6-0.6,1.8-0.6,2.4,0l12,6.6c0.6,0.6,1.2,1.2,1.2,1.8s-0.6,1.8-1.2,1.8l-5.4,4.2l-9.6,12C427.7,462.5,427.1,462.5,426.5,462.5z
			 M431.9,441.5v3.6v0.6l-1.8,6.6l4.8-5.4c0,0,0,0,0.6-0.6l3-1.8L431.9,441.5z"/>
	</g>
	<g>
		<path fill="#BEBEBE" d="M453.5,458.9l-1.8,6.6l-8.4,13.2l0.6,0.6l12.6-9l6.6-2.4L453.5,458.9z"/>
		<path fill="#BEBEBE" d="M443.9,481.7c-0.6,0-1.2,0-1.8-0.6l-0.6-0.6c-0.6-0.6-1.2-1.8-0.6-3l7.8-13.2l1.8-6.6
			c0-0.6,0.6-1.2,1.8-1.8c0.6,0,1.8,0,2.4,0.6l10.2,9.6c0.6,0.6,0.6,1.2,0.6,2.4c0,0.6-0.6,1.2-1.2,1.8l-6.6,2.4l-12.6,8.4
			C445.1,481.7,444.5,481.7,443.9,481.7z M454.7,463.1l-1.2,3v0.6l-3.6,6l6-4.2h0.6l3-1.2L454.7,463.1z"/>
	</g>
	<g>
		<path fill="#BEBEBE" d="M464.9,472.1l-6,3.6l-15,3.6v0.6l15.6,3l6.6,3L464.9,472.1z"/>
		<path fill="#BEBEBE" d="M465.5,488.3c-0.6,0-0.6,0-1.2,0l-6-3l-15-3c-1.2,0-1.8-1.2-1.8-2.4v-0.6c0-1.2,0.6-1.8,1.8-2.4l15-3.6
			l6-3c0.6-0.6,1.8-0.6,2.4,0s1.2,1.2,1.2,1.8v13.8c0,0.6-0.6,1.8-1.2,1.8C466.1,487.7,465.5,488.3,465.5,488.3z M452.3,479.3
			l7.2,1.2h0.6l3,1.8v-6.6l-3,1.8h-0.6L452.3,479.3z"/>
	</g>
	<g>
		<path fill="#BEBEBE" d="M351.4,470.3l7.2,0.6l15,4.8l0.6-0.6l-11.4-10.2l-3.6-6L351.4,470.3z"/>
		<path fill="#BEBEBE" d="M373.6,477.5H373l-14.4-4.8l-6.6-0.6c-0.6,0-1.2-0.6-1.8-1.2c-0.6-0.6-0.6-1.8,0-2.4l7.2-12
			c0.6-0.6,1.2-1.2,1.8-1.2s1.8,0.6,1.8,1.2l3.6,6l11.4,10.2c0.6,0.6,1.2,1.8,0.6,3l-0.6,0.6C374.8,477.5,374.2,477.5,373.6,477.5z
			 M355.6,467.9h3.6h0.6l6.6,2.4l-5.4-4.8c0,0,0,0-0.6-0.6l-1.8-3L355.6,467.9z"/>
	</g>
	<g>
		<path fill="#BEBEBE" d="M801,412.7l6.6,1.8l13.8,7.8l0.6-0.6l-9-12.6l-2.4-6.6L801,412.7z"/>
		<path fill="#BEBEBE" d="M821.4,424.7c-0.6,0-0.6,0-1.2-0.6l-13.2-7.8l-6.6-1.8c-0.6,0-1.2-0.6-1.8-1.8s0-1.8,0.6-2.4l9-10.2
			c0.6-0.6,1.2-0.6,1.8-0.6s1.2,0.6,1.8,1.2l2.4,6.6l9,12.6c0.6,0.6,0.6,1.8,0,3l-0.6,0.6C822.6,424.7,822,424.7,821.4,424.7z
			 M805.2,411.5l3.6,0.6h0.6l6,3.6l-4.2-6v-0.6l-1.2-3L805.2,411.5z"/>
	</g>
	<g>
		<path fill="#BEBEBE" d="M789,466.1l6-3.6l15-4.8v-0.6l-15.6-1.8l-6.6-2.4L789,466.1z"/>
		<path fill="#BEBEBE" d="M789,468.5c-0.6,0-0.6,0-1.2,0c-0.6-0.6-1.2-1.2-1.2-1.8l-1.2-13.8c0-0.6,0-1.8,0.6-1.8
			c0.6-0.6,1.2-0.6,2.4,0l6.6,2.4l15,1.8c1.2,0,1.8,1.2,1.8,1.8v0.6c0,1.2-0.6,1.8-1.8,2.4l-14.4,4.8l-6,3.6
			C789.6,468.5,789.6,468.5,789,468.5z M790.2,455.9l0.6,6.6l3-1.8h0.6l6.6-2.4l-7.2-0.6h-0.6L790.2,455.9z"/>
	</g>
	<g>
		<path fill="#BEBEBE" d="M850.8,385.1l3,6.6l3,15.6h0.6l3.6-15l3.6-6L850.8,385.1z"/>
		<path fill="#BEBEBE" d="M857.4,409.1h-0.6c-1.2,0-1.8-0.6-2.4-1.8l-3-15l-3-6c-0.6-0.6,0-1.8,0-2.4c0.6-0.6,1.2-1.2,1.8-1.2
			l13.8,0.6c0.6,0,1.2,0.6,1.8,1.2s0.6,1.8,0,2.4l-3,6l-3.6,15C859.2,408.5,858.6,409.1,857.4,409.1z M854.4,387.5l1.2,3v0.6
			l1.2,7.2l1.8-6.6v-0.6l1.8-3L854.4,387.5z"/>
	</g>
	<g>
		<path fill="#BEBEBE" d="M787.8,452.3l6.6-2.4l15.6-1.2v-0.6l-15-4.8l-6-4.2L787.8,452.3z"/>
		<path fill="#BEBEBE" d="M787.8,454.7c-0.6,0-1.2,0-1.2-0.6c-0.6-0.6-1.2-1.2-0.6-1.8l1.8-13.8c0-0.6,0.6-1.2,1.2-1.8
			c0.6-0.6,1.8,0,2.4,0l5.4,3.6l14.4,4.8c1.2,0.6,1.8,1.2,1.8,2.4v0.6c0,1.2-1.2,1.8-1.8,1.8l-15,1.2l-6.6,2.4
			C788.4,454.7,787.8,454.7,787.8,454.7z M790.8,442.7l-0.6,6.6l3-1.2h0.6l7.2-0.6l-6.6-2.4h-0.6L790.8,442.7z"/>
	</g>
	<g>
		<path fill="#BEBEBE" d="M912.7,492.5l-7.2-1.8l-13.8-7.2l-0.6,0.6l9.6,12.6l3,6.6L912.7,492.5z"/>
		<path fill="#BEBEBE" d="M903.7,505.1C903.1,505.1,903.1,505.1,903.7,505.1c-1.2,0-1.8-0.6-1.8-1.2l-2.4-6.6l-9.6-12
			c-0.6-0.6-0.6-1.8,0-3l0.6-0.6c0.6-0.6,1.8-1.2,3-0.6l13.2,7.2l6.6,1.8c0.6,0,1.2,0.6,1.8,1.2c0,0.6,0,1.8-0.6,2.4l-9,10.8
			C904.9,504.5,904.3,505.1,903.7,505.1z M898.3,488.9l4.2,5.4v0.6l1.2,3l4.2-4.8l-3.6-0.6h-0.6L898.3,488.9z"/>
	</g>
	<g>
		<path fill="#BEBEBE" d="M892.3,395.3l-1.2,7.2l-6.6,13.8l0.6,0.6l12-10.2l6.6-3L892.3,395.3z"/>
		<path fill="#BEBEBE" d="M885.1,418.7c-0.6,0-1.2,0-1.2-0.6l-0.6-0.6c-0.6-0.6-1.2-1.8-0.6-3l6.6-13.8l1.2-6.6
			c0-0.6,0.6-1.2,1.2-1.8c0.6,0,1.8,0,2.4,0.6l10.8,8.4c0.6,0.6,1.2,1.2,0.6,1.8c0,0.6-0.6,1.2-1.2,1.8l-6,3l-11.4,9.6
			C886.3,418.7,885.7,418.7,885.1,418.7z M894.1,398.9l-0.6,3.6v0.6l-3,6.6l5.4-4.8c0,0,0.6,0,0.6-0.6l3-1.2L894.1,398.9z"/>
	</g>
	<g>
		<path fill="#BEBEBE" d="M1417.5,1123.3l7.2-1.2l15.6,1.2v-0.6l-13.8-7.2l-5.4-4.8L1417.5,1123.3z"/>
		<path fill="#BEBEBE" d="M1417.5,1125.8c-0.6,0-1.2,0-1.8-0.6c-0.6-0.6-0.6-1.2-0.6-2.4l3.6-13.2c0-0.6,0.6-1.2,1.8-1.8
			c0.6,0,1.8,0,2.4,0.6l4.8,4.8l13.2,7.2c1.2,0.6,1.2,1.8,1.2,2.4v0.6c-0.6,1.2-1.2,1.8-2.4,1.8l-15-1.2L1417.5,1125.8
			C1417.5,1125.2,1417.5,1125.8,1417.5,1125.8z M1422.3,1114.3l-1.8,6l3.6-0.6h0.6l7.2,0.6l-6-3.6c0,0-0.6,0-0.6-0.6L1422.3,1114.3z
			"/>
	</g>
	<g>
		<path fill="#BEBEBE" d="M529.7,1775.2l4.2-6l12-10.2l-0.6-0.6l-15,4.2h-7.2L529.7,1775.2z"/>
		<path fill="#BEBEBE" d="M529.7,1777.6L529.7,1777.6c-1.2,0-1.8-0.6-1.8-1.2l-6.6-12c-0.6-0.6-0.6-1.8,0-2.4s1.2-1.2,1.8-1.2h6.6
			l15-4.2c1.2,0,1.8,0,2.4,1.2l0.6,0.6c0.6,1.2,0,2.4-0.6,3l-12,9.6l-4.2,5.4C531.5,1777,530.9,1777.6,529.7,1777.6z M527.3,1765
			l3,6l1.8-3c0,0,0-0.6,0.6-0.6l5.4-4.8l-6.6,1.8h-0.6L527.3,1765z"/>
	</g>
	<g>
		<path fill="#BEBEBE" d="M591.5,1775.2l-7.2-1.8l-13.8-7.2l-0.6,0.6l9.6,12.6l3,6.6L591.5,1775.2z"/>
		<path fill="#BEBEBE" d="M583.1,1788.4C582.5,1788.4,582.5,1788.4,583.1,1788.4c-1.2,0-1.8-0.6-1.8-1.2l-2.4-6l-9.6-12
			c-0.6-0.6-0.6-1.8,0-3l0.6-0.6c0.6-0.6,1.8-1.2,3-0.6l13.8,7.2l6.6,1.8c0.6,0,1.2,0.6,1.8,1.2c0,0.6,0,1.8-0.6,2.4l-9,10.8
			C584.3,1787.8,583.7,1788.4,583.1,1788.4z M577.7,1772.8l4.2,5.4c0,0,0,0.6,0.6,0.6l1.2,3l4.2-4.8l-3.6-0.6h-0.6L577.7,1772.8z"/>
	</g>
	<g>
		<path fill="#BEBEBE" d="M521.9,1743.4l7.2-1.2l15.6,2.4v-0.6l-13.2-8.4l-4.8-5.4L521.9,1743.4z"/>
		<path fill="#BEBEBE" d="M544.7,1747L544.7,1747l-15.6-2.4l-6.6,0.6c-0.6,0-1.8,0-1.8-0.6s-0.6-1.2-0.6-2.4l4.8-13.2
			c0-0.6,0.6-1.2,1.8-1.2c0.6,0,1.8,0,1.8,0.6l4.8,4.8l13.2,7.8c0.6,0.6,1.2,1.8,1.2,2.4v0.6C546.5,1746.4,545.9,1747,544.7,1747z
			 M529.1,1739.8C529.1,1739.8,529.7,1739.8,529.1,1739.8l7.2,1.2l-6-3.6c0,0-0.6,0-0.6-0.6l-2.4-2.4l-2.4,6L529.1,1739.8
			L529.1,1739.8z"/>
	</g>
	<g>
		<path fill="#BEBEBE" d="M583.1,1715.2l-1.8,7.2l-7.2,13.8l0.6,0.6l12.6-9.6l6.6-3L583.1,1715.2z"/>
		<path fill="#BEBEBE" d="M574.7,1738.6c-0.6,0-1.2,0-1.2-0.6l-0.6-0.6c-0.6-0.6-1.2-1.8-0.6-3l7.2-13.8l1.8-6.6
			c0-0.6,0.6-1.2,1.2-1.8c0.6,0,1.8,0,2.4,0.6l10.8,9c0.6,0.6,0.6,1.2,0.6,1.8c0,0.6-0.6,1.2-1.2,1.8l-6,2.4l-12,9.6
			C575.3,1738.6,575.3,1738.6,574.7,1738.6z M584.3,1719.4l-0.6,3.6v0.6l-3.6,6l5.4-4.2h0.6l3-1.2L584.3,1719.4z"/>
	</g>
	<g>
		<path fill="#BEBEBE" d="M578.9,1787.8l-3.6-6l-4.2-15h-0.6l-2.4,15.6l-3,6.6L578.9,1787.8z"/>
		<path fill="#BEBEBE" d="M565.1,1791.4c-0.6,0-1.2-0.6-1.8-1.2s-0.6-1.2,0-2.4l2.4-6l2.4-15c0-1.2,1.2-1.8,1.8-1.8h0.6
			c1.2,0,1.8,0.6,2.4,1.8l4.2,15l3.6,6c0.6,0.6,0.6,1.8,0,2.4s-1.2,1.2-1.8,1.2H565.1C565.7,1791.4,565.7,1791.4,565.1,1791.4z
			 M571.1,1775.8l-1.2,7.2v0.6l-1.2,3l6.6-0.6l-1.8-3v-0.6L571.1,1775.8z"/>
	</g>
	<g>
		<path fill="#BEBEBE" d="M1127,1334l3.6,6l3.6,15h0.6l3-15.6l3-6.6L1127,1334z"/>
		<path fill="#BEBEBE" d="M1134.2,1358c-1.2,0-1.8-0.6-2.4-1.8l-3.6-15l-3-6c-0.6-0.6-0.6-1.8,0-2.4s1.2-1.2,1.8-1.2h13.8
			c0.6,0,1.8,0.6,1.8,1.2c0.6,0.6,0.6,1.2,0,2.4l-3,6l-3,15C1136.6,1357.4,1135.4,1358,1134.2,1358L1134.2,1358L1134.2,1358z
			 M1131.2,1336.4l1.8,3v0.6l1.8,6.6l1.2-7.2v-0.6l1.8-3L1131.2,1336.4z"/>
	</g>
	<g>
		<path d="M1783.6,697.8c0,31.8-48,31.8-48,0S1783.6,666,1783.6,697.8"/>
		<path d="M1759.6,724.2c-13.2,0-26.4-9-26.4-26.4s13.2-26.4,26.4-26.4s26.4,9,26.4,26.4S1772.8,724.2,1759.6,724.2z M1759.6,676.2
			c-10.2,0-21.6,6.6-21.6,21.6s11.4,21.6,21.6,21.6s21.6-6.6,21.6-21.6S1769.8,676.2,1759.6,676.2z"/>
	</g>
	<g>
		<path d="M1457.7,678c0,24.6-19.8,44.4-44.4,44.4s-44.4-19.8-44.4-44.4c0-24.6,19.8-44.4,44.4-44.4
			C1437.9,634.2,1457.7,654,1457.7,678"/>
		<path d="M1413.3,724.8c-25.8,0-46.8-21-46.8-46.8s21-46.8,46.8-46.8s46.8,21,46.8,46.8C1460.1,703.8,1439.1,724.8,1413.3,724.8z
			 M1413.3,636c-23.4,0-42,18.6-42,42s18.6,42,42,42s42-18.6,42-42S1436.7,636,1413.3,636z"/>
	</g>
	<g>
		<path d="M446.9,494.9c0,21.6-17.4,39-39,39s-39-17.4-39-39c0-21.6,17.4-39,39-39S446.9,473.3,446.9,494.9"/>
		<path d="M407.9,536.3c-22.8,0-41.4-18.6-41.4-41.4c0-22.8,18.6-41.4,41.4-41.4s41.4,18.6,41.4,41.4
			C449.3,517.7,430.7,536.3,407.9,536.3z M407.9,457.7c-20.4,0-37.2,16.8-37.2,37.2s16.8,37.2,37.2,37.2c20.4,0,37.2-16.8,37.2-37.2
			C444.5,474.5,428.3,457.7,407.9,457.7z"/>
	</g>
	<g>
		<path d="M1440.9,1521.3c0,42-62.4,42-62.4,0S1440.9,1479.3,1440.9,1521.3"/>
		<path d="M1409.1,1554.9c-16.8,0-33.6-11.4-33.6-33.6s16.8-33.6,33.6-33.6c16.8,0,33.6,11.4,33.6,33.6S1425.9,1554.9,1409.1,1554.9
			z M1409.1,1491.9c-13.8,0-28.8,9-28.8,28.8s15,28.8,28.8,28.8s28.8-9,28.8-28.8S1423.5,1491.9,1409.1,1491.9z"/>
	</g>
	<g>
		<path d="M936.1,915.1c0,25.2-20.4,45-45,45s-45-20.4-45-45c0-25.2,20.4-45,45-45S936.1,890.5,936.1,915.1"/>
		<path d="M891.1,962.5c-26.4,0-47.4-21.6-47.4-47.4c0-26.4,21.6-47.4,47.4-47.4c26.4,0,47.4,21,47.4,47.4S917.5,962.5,891.1,962.5z
			 M891.1,872.4c-24,0-43.2,19.2-43.2,43.2s19.2,43.2,43.2,43.2s43.2-19.2,43.2-43.2C934.3,891.7,915.1,872.4,891.1,872.4z"/>
	</g>
	<g>
		<path d="M1190.6,697.2c0,27-22.2,49.2-49.2,49.2s-49.2-22.2-49.2-49.2s22.2-49.2,49.2-49.2C1169,648,1190.6,670.2,1190.6,697.2"/>
		<path d="M1141.4,748.8c-28.2,0-51.6-22.8-51.6-51.6s22.8-51.6,51.6-51.6s51.6,22.8,51.6,51.6S1170.2,748.8,1141.4,748.8z
			 M1141.4,650.4c-25.8,0-46.8,21-46.8,46.8s21,46.8,46.8,46.8s46.8-21,46.8-46.8C1188.2,671.4,1167.2,650.4,1141.4,650.4z"/>
	</g>
	<g>
		<path d="M851.4,1440.3c0,38.4-57.6,38.4-57.6,0C793.8,1401.9,851.4,1401.9,851.4,1440.3"/>
		<path d="M822.6,1471.5c-15.6,0-31.2-10.8-31.2-31.2c0-20.4,15.6-31.2,31.2-31.2c15.6,0,31.2,10.8,31.2,31.2
			C853.2,1460.7,837.6,1471.5,822.6,1471.5z M822.6,1413.9c-12.6,0-26.4,8.4-26.4,26.4s13.8,26.4,26.4,26.4
			c12.6,0,26.4-8.4,26.4-26.4S835.2,1413.9,822.6,1413.9z"/>
	</g>
	<g>
		<path d="M902.5,453.5c0,25.8-21,46.8-46.8,46.8s-46.8-21-46.8-46.8s21-46.8,46.8-46.8S902.5,427.7,902.5,453.5"/>
		<path d="M856.2,502.1c-27,0-48.6-21.6-48.6-48.6s21.6-48.6,48.6-48.6s48.6,21.6,48.6,48.6S883.3,502.1,856.2,502.1z M856.2,409.1
			c-24.6,0-44.4,19.8-44.4,44.4s19.8,44.4,44.4,44.4s44.4-19.8,44.4-44.4C900.7,428.9,880.9,409.1,856.2,409.1z"/>
	</g>
	<g>
		<path d="M27.3,1449.9c0,11.4-16.8,11.4-16.8,0S27.3,1439.1,27.3,1449.9"/>
		<path d="M18.9,1460.7c-5.4,0-10.8-3.6-10.8-10.8c0-13.8,21.6-13.8,21.6,0C29.1,1457.1,24.3,1460.7,18.9,1460.7z M18.9,1443.9
			c-3,0-6,1.8-6,6c0,8.4,12.6,8.4,12.6,0C24.9,1445.7,21.9,1443.9,18.9,1443.9z"/>
	</g>
	<g>
		<path d="M338.2,1874.2c0,16.2-24.6,16.2-24.6,0S338.2,1858,338.2,1874.2"/>
		<path d="M325.6,1888.7c-7.2,0-14.4-4.8-14.4-14.4c0-19.2,28.8-19.2,28.8,0C340.6,1883.9,332.8,1888.7,325.6,1888.7z M325.6,1864.6
			c-4.8,0-10.2,3-10.2,10.2s4.8,10.2,10.2,10.2s10.2-3,10.2-10.2C335.8,1867.6,331,1864.6,325.6,1864.6z"/>
	</g>
	<g>
		<path d="M1182.2,1031.5c0,29.4-24,54-54,54s-54-24-54-54s24-54,54-54S1182.2,1001.5,1182.2,1031.5"/>
		<path d="M1128.2,1087.3c-31.2,0-55.8-25.2-55.8-55.8c0-31.2,25.2-55.8,55.8-55.8c31.2,0,55.8,25.2,55.8,55.8
			C1184.6,1062.1,1159.4,1087.3,1128.2,1087.3z M1128.2,979.9c-28.2,0-51.6,23.4-51.6,51.6s23.4,51.6,51.6,51.6s51.6-23.4,51.6-51.6
			C1179.8,1002.7,1157,979.9,1128.2,979.9z"/>
	</g>
	<g>
		<path d="M596.9,193c0,40.2-60.6,40.2-60.6,0S596.9,152.8,596.9,193"/>
		<path d="M566.9,225.4c-16.2,0-32.4-11.4-32.4-32.4s16.2-32.4,32.4-32.4s32.4,11.4,32.4,32.4S583.1,225.4,566.9,225.4z
			 M566.9,164.8c-13.2,0-28.2,9-28.2,28.2s14.4,28.2,28.2,28.2s28.2-9,28.2-28.2S580.1,164.8,566.9,164.8z"/>
	</g>
	<g>
		<path d="M611.3,421.1c0,19.2-15.6,34.8-34.8,34.8s-34.8-15.6-34.8-34.8s15.6-34.8,34.8-34.8C595.1,386.3,611.3,401.9,611.3,421.1"
			/>
		<path d="M575.9,458.3c-20.4,0-37.2-16.8-37.2-37.2c0-20.4,16.8-37.2,37.2-37.2s37.2,16.8,37.2,37.2
			C613.1,441.5,596.3,458.3,575.9,458.3z M575.9,388.7c-18,0-32.4,14.4-32.4,32.4s14.4,32.4,32.4,32.4s33-14.4,33-32.4
			S593.9,388.7,575.9,388.7z"/>
	</g>
	<g>
		<path d="M140.8,327.4c0,28.2-42,28.2-42,0S140.8,299.2,140.8,327.4"/>
		<path d="M119.7,350.8c-11.4,0-23.4-7.8-23.4-23.4s12-23.4,23.4-23.4s23.4,7.8,23.4,23.4C143.2,343,131.2,350.8,119.7,350.8z
			 M119.7,308.8c-9,0-18.6,6-18.6,18.6s9.6,18.6,18.6,18.6s18.6-6,18.6-18.6S128.8,308.8,119.7,308.8z"/>
	</g>
	<g>
		<path d="M889.9,27.3c0,32.4-49.2,32.4-49.2,0C840.6-5.7,889.9-5.7,889.9,27.3"/>
		<path d="M865.2,53.7c-13.2,0-27-9-27-27c0-17.4,13.2-27,27-27s27,9,27,27S878.5,53.7,865.2,53.7z M865.2,5.1
			c-10.8,0-22.2,7.2-22.2,22.2s11.4,22.2,22.2,22.2s22.2-7.2,22.2-22.2C887.5,11.7,876.1,5.1,865.2,5.1z"/>
	</g>
	<g>
		<path d="M1125.8,137.2c0,32.4-49.2,32.4-49.2,0C1076.5,104.7,1125.8,104.7,1125.8,137.2"/>
		<path d="M1101.1,164.2c-13.2,0-27-9-27-27c0-17.4,13.2-27,27-27s27,9,27,27C1127.6,154.6,1114.3,164.2,1101.1,164.2z
			 M1101.1,114.9c-10.8,0-22.2,7.2-22.2,22.2s11.4,22.2,22.2,22.2s22.2-7.2,22.2-22.2C1123.3,122.1,1111.9,114.9,1101.1,114.9z"/>
	</g>
	<g>
		<path d="M695.4,1984.1c0,18.6-28.2,18.6-28.2,0S695.4,1965.5,695.4,1984.1"/>
		<path d="M681.6,2000.3c-7.8,0-16.2-5.4-16.2-16.2c0-21.6,32.4-21.6,32.4,0C697.8,1994.9,689.4,2000.3,681.6,2000.3z M681.6,1972.7
			c-5.4,0-12,3.6-12,12s6,12,12,12s12-3.6,12-12S687,1972.7,681.6,1972.7z"/>
	</g>
	<g>
		<path d="M258.4,1636.6c0,16.2-24.6,16.2-24.6,0C233.8,1620.3,258.4,1620.3,258.4,1636.6"/>
		<path d="M245.8,1651c-7.2,0-14.4-4.8-14.4-14.4c0-19.2,29.4-19.2,29.4,0C260.8,1646.2,253,1651,245.8,1651z M245.8,1626.4
			c-4.8,0-10.2,3-10.2,10.2s4.8,10.2,10.2,10.2s10.2-3,10.2-10.2S251.2,1626.4,245.8,1626.4z"/>
	</g>
	<g>
		<path d="M1989.5,848.4c0,18.6-27.6,18.6-27.6,0S1989.5,829.8,1989.5,848.4"/>
		<path d="M1975.7,864.6c-7.8,0-16.2-5.4-16.2-16.2c0-21,32.4-21,32.4,0C1991.9,859.2,1984.1,864.6,1975.7,864.6z M1975.7,837
			c-5.4,0-11.4,3.6-11.4,11.4s6,11.4,11.4,11.4s11.4-3.6,11.4-11.4S1981.7,837,1975.7,837z"/>
	</g>
	<g>
		<path d="M110.7,679.2c0,28.2-42,28.2-42,0S110.7,651,110.7,679.2"/>
		<path d="M89.7,702.6c-11.4,0-23.4-7.8-23.4-23.4c0-15,12-23.4,23.4-23.4s23.4,7.8,23.4,23.4C112.5,694.8,101.1,702.6,89.7,702.6z
			 M89.7,660.6c-9,0-18.6,6-18.6,18.6s9.6,18.6,18.6,18.6s18.6-6,18.6-18.6C108.3,666.6,98.7,660.6,89.7,660.6z"/>
	</g>
	<g>
		<path d="M1607.1,344.8c0,31.2-46.8,31.2-46.8,0S1607.1,313.6,1607.1,344.8"/>
		<path d="M1583.7,370.6c-12.6,0-25.8-9-25.8-25.8s13.2-25.8,25.8-25.8c12.6,0,25.8,9,25.8,25.8S1596.3,370.6,1583.7,370.6z
			 M1583.7,323.8c-10.2,0-21,6.6-21,21s10.8,21,21,21s21-6.6,21-21S1593.9,323.8,1583.7,323.8z"/>
	</g>
	<g>
		<path d="M1652.2,1645c0,30-45,30-45,0C1607.7,1614.9,1652.2,1614.9,1652.2,1645"/>
		<path d="M1630,1669.6c-12,0-24.6-8.4-24.6-24.6s12.6-24.6,24.6-24.6s24.6,8.4,24.6,24.6S1642,1669.6,1630,1669.6z M1630,1624.5
			c-9.6,0-20.4,6.6-20.4,20.4s10.2,20.4,20.4,20.4s20.4-6.6,20.4-20.4C1650.4,1630.6,1639.6,1624.5,1630,1624.5z"/>
	</g>
	<g>
		<path d="M1404.9,1885.7c0,23.4-34.8,23.4-34.8,0C1370,1862.2,1404.9,1862.8,1404.9,1885.7"/>
		<path d="M1387.5,1905.5c-9.6,0-19.8-6.6-19.8-19.8c0-13.2,9.6-19.8,19.8-19.8s19.8,6.6,19.8,19.8S1397.7,1905.5,1387.5,1905.5z
			 M1387.5,1870.6c-7.2,0-15,4.8-15,15s7.8,15,15,15s15-4.8,15-15C1402.5,1875.5,1394.7,1870.6,1387.5,1870.6z"/>
	</g>
	<g>
		<path d="M556.1,842.4c0,39.6-59.4,39.6-59.4,0C496.1,802.2,556.1,802.2,556.1,842.4"/>
		<path d="M526.1,874.2c-16.2,0-31.8-10.8-31.8-31.8s16.2-31.8,31.8-31.8s31.8,10.8,31.8,31.8C557.9,863.4,541.7,874.2,526.1,874.2z
			 M526.1,814.8c-13.2,0-27.6,8.4-27.6,27.6c0,19.2,14.4,27.6,27.6,27.6s27.6-8.4,27.6-27.6C553.7,823.2,539.3,814.8,526.1,814.8z"
			/>
	</g>
	<g>
		<path d="M1494.3,1130.6c0,37.2-55.8,37.2-55.8,0C1438.5,1093.3,1494.3,1093.3,1494.3,1130.6"/>
		<path d="M1466.7,1160.6c-15,0-30-10.2-30-30s15-30,30-30s30,10.2,30,30S1481.7,1160.6,1466.7,1160.6z M1466.7,1104.7
			c-12.6,0-25.8,7.8-25.8,25.8c0,17.4,13.2,25.8,25.8,25.8s25.8-7.8,25.8-25.8C1492.5,1113.1,1478.7,1104.7,1466.7,1104.7z"/>
	</g>
	<g>
		<path d="M580.7,1750.6c0,24.6-37.2,24.6-37.2,0S580.7,1725.4,580.7,1750.6"/>
		<path d="M562.1,1771c-10.2,0-21-7.2-21-21s10.2-21,21-21s21,7.2,21,21S572.9,1771,562.1,1771z M562.1,1733.8
			c-7.8,0-16.2,5.4-16.2,16.2s8.4,16.2,16.2,16.2s16.2-5.4,16.2-16.2S569.9,1733.8,562.1,1733.8z"/>
	</g>
	<g>
		<path d="M1163,1383.3c0,37.2-55.8,37.2-55.8,0S1163,1346,1163,1383.3"/>
		<path d="M1135.4,1413.9c-15,0-30-10.2-30-30s15-30,30-30s30,10.2,30,30C1165.4,1403.1,1150.4,1413.9,1135.4,1413.9z M1135.4,1358
			c-12.6,0-25.8,7.8-25.8,25.8c0,17.4,13.2,25.8,25.8,25.8c12.6,0,25.8-7.8,25.8-25.8C1160.6,1365.8,1147.4,1358,1135.4,1358z"/>
	</g>
</g>
</svg>
